<?xml version="1.0" encoding="utf-8"?>
<!-- Generator: Adobe Illustrator 23.0.5, SVG Export Plug-In . SVG Version: 6.00 Build 0)  -->
<svg version="1.1" id="Layer_1" xmlns="http://www.w3.org/2000/svg" xmlns:xlink="http://www.w3.org/1999/xlink" x="0px" y="0px"
	 viewBox="0 0 425.2 425.2" style="enable-background:new 0 0 425.2 425.2;" xml:space="preserve">
<style type="text/css">
	.st0{fill-rule:evenodd;clip-rule:evenodd;fill:#FFFFFF;}
	.st1{fill-rule:evenodd;clip-rule:evenodd;fill:#0090D4;}
	.st2{fill:none;stroke:#FFFFFF;stroke-width:2.44;stroke-miterlimit:10;}
	.st3{fill:none;stroke:#231F20;stroke-width:0.25;stroke-miterlimit:2.61;}
	.st4{fill-rule:evenodd;clip-rule:evenodd;fill:#231F20;}
	.st5{fill:#231F20;}
	.st6{fill-rule:evenodd;clip-rule:evenodd;fill:#FBD106;}
</style>
<path class="st0" d="M212.8,0c104.3,29.1,153,65.3,208.8,151.7c4.5,108.2-14.8,165.7-79.8,245.4c-101.5,37.8-162.2,37.1-258.1,0
	C16.5,312.2-1.7,254.3,4,151.7C63.9,61.5,113.4,26.3,212.8,0"/>
<title>logo-kemdikbud</title>
<path class="st1" d="M212.8,20.4c94.3,26.3,138.3,59,188.7,137.1c4.1,97.8-13.4,149.8-72.1,221.9c-91.8,34.1-146.6,33.5-233.3,0
	C35.3,302.7,18.9,250.3,24,157.5C78.2,76,122.9,44.2,212.8,20.4"/>
<path class="st2" d="M212.8,20.4c94.3,26.3,138.3,59,188.7,137.1c4.1,97.8-13.4,149.8-72.1,221.9c-91.8,34.1-146.6,33.5-233.3,0
	C35.3,302.7,18.9,250.3,24,157.5C78.2,76,122.9,44.2,212.8,20.4"/>
<polyline class="st3" points="81.2,176.3 77,182.4 68.8,194.8 63.3,210.7 60.4,217.4 60.9,228.6 65.5,236.3 67.1,245.2 69.3,251.4 
	74.3,260.6 73.9,265.3 75,270.3 78.8,277.2 82.5,281.8 83.6,287.3 "/>
<path class="st4" d="M212.8,328.3c-8.2-2.2-15.9-6-22.7-11c-1.4-1.1-2.9-2.2-4.2-3.4c-0.5-0.5-1-0.9-1.6-1.4
	c-11.4,4.6-23.2,8-35.3,10.2c-11.1,2-22.5,2.7-32,0.7c-9.9-2-17.8-6.8-21.5-15.9c-0.6-1.6-1.2-3.3-1.5-5l0,0
	c-7.6-5-11.4-11.2-12.6-16.1c-0.2-1-0.4-2-0.5-3c0-0.5,0-1,0-1.5c-5.2-5.2-8.4-10.6-8.8-15.6c-0.1-1.1,0-2.2,0.2-3.2
	c0.1-0.6,0.2-1.2,0.4-1.8l0,0l0,0l0,0c-2.6-2.9-4.7-6.3-6.1-9.9c-1.6-4.3-2.3-8.8-2-13.4c-9.3-8.6-8.2-22-2.5-33.4
	c6.7-13.3,15.6-25.9,19.5-37.1c2.2-6.2,3.9-2.4,3.9-0.4c-0.2,9.5-1.3,18.9-3.4,28.1c-0.2,0.9-0.4,1.9-1,4.9c-0.9,4.6-0.9,8.9,0.4,12
	c0.5,1.2,1.3,2.3,2.3,3.2c1.1,0.9,2.4,1.5,3.8,1.7c3.6,0.7,8.7-0.1,15.7-3c16.8-7.1,33.1-13.3,44.8-14.1c13-0.9,20.5,4.3,18,20.8
	c-0.3,2.3-0.7,4.6-1.1,6.7c-0.9,5.5-1.4,8.6-1.1,11.6c0.3,2.6,1.1,5.1,2.4,7.4c1.7,2.6,3.9,4.8,6.5,6.6c0.1-0.4,0.3-0.9,0.5-1.3
	c-0.9-9.4,0-18.7,4-27.6c0.7-1.6,1.5-3.1,2.4-4.6L161.4,131c-1.3-6.1-2.6-9.8-5.1-11.7c-3.2-2.4-8.5-1.7-12.1-1.1
	c-3.1,0.5-3.1-1.3-0.9-2.6c3.4-1.9,7.5-4.7,11.2-7.1c6.6-4.4,13.4-8.4,20.8-2.7c0.9-6.3,5.9-9.6,10.7-12.9c1.4-1,4.8-3,6.6-5.6
	c1.7-2.5,3.7-3.3,4-0.4c0.1,0.8,0.4,2.3,0.6,4c3.4-3.7,8.5-5.8,11.8-9.4c1.9-2,2-3.9,3.8-4c1.8,0.1,1.9,2,3.7,4
	c3.4,3.6,8.4,5.7,11.8,9.4c0.3-1.7,0.5-3.2,0.6-4c0.3-2.9,2.3-2,4,0.4c1.9,2.6,5.3,4.6,6.6,5.6c4.7,3.3,9.7,6.6,10.7,12.9
	c7.5-5.6,14.2-1.7,20.8,2.7c3.7,2.4,7.8,5.2,11.2,7.1c2.2,1.3,2.2,3.1-0.9,2.6c-3.6-0.6-8.9-1.3-12.1,1.1c-2.4,1.8-3.8,5.6-5,11.7
	L246,219.4c0.9,1.5,1.7,3.1,2.4,4.6c4,8.8,4.9,18.2,4,27.6c0.2,0.4,0.3,0.9,0.5,1.3c2.6-1.7,4.8-3.9,6.5-6.6
	c1.4-2.2,2.2-4.7,2.4-7.4c0.4-3-0.1-6.1-1.1-11.6c-0.4-2.1-0.8-4.4-1.1-6.7c-2.5-16.4,5-21.6,18-20.8c11.6,0.8,27.9,7,44.8,14.1
	c6.9,2.9,12,3.7,15.6,3c1.4-0.3,2.7-0.9,3.8-1.8c1-0.9,1.8-1.9,2.3-3.2c1.3-3.1,1.3-7.4,0.4-12c-0.6-3.1-0.8-4-1-4.9
	c-2.1-9.2-3.2-18.7-3.4-28.2c0-1.9,1.7-5.8,3.9,0.4c3.9,11.2,12.8,23.8,19.5,37.1c5.7,11.4,6.9,24.8-2.5,33.4
	c0.3,4.5-0.4,9.1-2,13.4c-1.5,3.6-3.5,7-6.1,9.9l0,0l0,0l0,0c0.2,0.6,0.3,1.2,0.4,1.8c0.2,1.1,0.2,2.1,0.1,3.2
	c-0.4,5-3.6,10.4-8.9,15.6c0,0.5,0,1,0,1.5c-0.1,1-0.2,2-0.5,3c-1.2,4.9-5,11.1-12.6,16.1l0,0c-0.3,1.7-0.8,3.4-1.5,5
	c-3.7,9.1-11.6,13.9-21.5,15.9c-9.5,2-20.9,1.3-32-0.7c-12.1-2.2-23.9-5.6-35.3-10.2c-0.5,0.5-1.1,1-1.6,1.4
	c-1.4,1.2-2.8,2.3-4.2,3.4C228.6,322.3,220.9,326,212.8,328.3"/>
<path class="st0" d="M207.9,188.2c1.9,2.2,3.5,4.6,4.8,7.1c1.3-2.5,2.9-4.9,4.8-7.1c2.7-3.4,5.3-6.6,5.4-11.5
	c0.1-5-2.8-9.2-5.8-13.3c-1.6-2.2-3.1-4.4-4.4-6.8c-1.3,2.4-2.8,4.7-4.4,6.8c-3,4.1-5.9,8.3-5.8,13.3
	C202.7,181.5,205.3,184.8,207.9,188.2"/>
<path class="st0" d="M96.1,298.9c3.7,1.6,7.7,2.7,11.8,3.1c3.6,0.3,7.2,0.4,10.8,0.2c2.6-0.1,2.9,4.2-0.1,4.3
	c-3.7,0.2-7.5,0.2-11.2-0.2c-2.9-0.3-5.7-0.9-8.5-1.8c0.2,0.5,0.3,1,0.6,1.5c3.1,7.6,9.9,11.6,18.4,13.4c8.9,1.8,19.7,1.1,30.4-0.7
	c10.4-1.9,20.6-4.7,30.5-8.4c-12.6-2.3-22.4-6.6-29.1-13.2c-7.6-7.4-11.3-17.6-10.5-31c0.5-8.7,3.1-17.6,5.6-26
	c1.7-5.3,3-10.7,4-16.1c1.3-8.9-0.9-15.4-13-17.3c-9.2,2.5-19.9,6.8-30.9,11.4c-7.7,3.4-13.7,4.2-18.1,3.3c-2.1-0.4-4.1-1.3-5.7-2.7
	c-1.5-1.3-2.7-2.9-3.4-4.8c-1.7-4-1.7-9.1-0.6-14.5c0.1-0.4,0.6-2.7,1-5c1-5,2-9.7,2.8-14.7c-2,3.9-4.2,7.8-6.4,11.7
	c-7,12.2-14,24.4-11.6,34.7c3,13,18.2,15.9,29.3,17.5c4.8,0.7,4.2,4.9-1,4.1c-6.1-1-13.2-2.6-18.8-5c-1.2-0.5-2.3-1.1-3.3-1.7
	c0.1,2.9,0.7,5.9,1.7,8.6c4.8,12.4,14.1,13.7,26,15c5.5,0.6,5.3,4.8-0.3,4.3c-6-0.5-12.6-1.6-17.5-3.7c-0.8-0.4-1.7-0.8-2.4-1.1
	c-1.2,6.6,4.1,12.8,10.4,15.9c6.5,3.1,14.1,3,19.2,2.6c3.8-0.3,3.8,4.3,0.1,4.3c-4.2,0.1-8.5-0.1-12.7-0.6c-2.7-0.3-5.4-1-8-2
	c0,0.3,0.1,0.6,0.2,0.9C86.4,289.4,89.6,294.5,96.1,298.9"/>
<path class="st0" d="M199.6,205.1c-9.3,6.2-15.2,13.3-18.6,20.9c-2.5,5.7-3.8,11.9-3.9,18.2c2.5-3.6,5.2-7,8.2-10.2
	c6.4-7.3,12.9-14.8,14.1-26.1C199.5,206.9,199.6,206,199.6,205.1"/>
<path class="st0" d="M132.1,335C132.1,334.9,132.1,335,132.1,335"/>
<path class="st0" d="M329.5,298.9c-3.7,1.6-7.7,2.7-11.8,3.1c-3.6,0.3-7.2,0.4-10.8,0.2c-2.6-0.1-2.9,4.2,0.1,4.3
	c3.7,0.2,7.5,0.2,11.2-0.2c2.9-0.3,5.7-0.9,8.5-1.8c-0.2,0.5-0.3,1-0.5,1.5c-3.1,7.6-9.9,11.6-18.4,13.4c-8.9,1.8-19.7,1.1-30.4-0.7
	c-10.4-1.9-20.6-4.7-30.5-8.4c12.6-2.3,22.4-6.6,29.1-13.2c7.6-7.4,11.2-17.6,10.5-31c-0.5-8.7-3.1-17.6-5.6-26
	c-1.7-5.3-3-10.7-4-16.1c-1.3-8.9,1-15.4,13-17.3c9.2,2.5,19.9,6.8,30.9,11.4c7.8,3.3,13.7,4.1,18.1,3.2c2.1-0.4,4.1-1.3,5.7-2.7
	c1.5-1.3,2.7-2.9,3.5-4.8c1.7-4,1.7-9.1,0.6-14.5c-0.1-0.4-0.6-2.7-1-5c-1.1-5-2-9.7-2.8-14.7c2,3.9,4.2,7.8,6.4,11.7
	c7,12.2,14,24.4,11.6,34.7c-3,13-18.2,15.9-29.3,17.5c-4.8,0.7-4.3,4.9,1,4.1c6.1-1,13.2-2.6,18.8-5c1.1-0.5,2.3-1.1,3.3-1.7
	c-0.1,2.9-0.7,5.9-1.7,8.6c-4.8,12.4-14.1,13.7-26,15c-5.5,0.6-5.3,4.8,0.3,4.3c6-0.5,12.5-1.6,17.5-3.7c0.8-0.4,1.6-0.8,2.4-1.1
	c1.2,6.6-4.1,12.8-10.4,15.9c-6.5,3.1-14.1,3-19.2,2.6c-3.8-0.3-3.8,4.3-0.1,4.3c4.2,0.1,8.5-0.1,12.7-0.6c2.7-0.3,5.4-1,8-2
	c0,0.3-0.1,0.6-0.2,0.9c-1,4-4.2,9.1-10.6,13.4"/>
<path class="st0" d="M225.9,205.1c9.3,6.2,15.2,13.3,18.6,20.9c2.5,5.7,3.9,11.9,3.9,18.2c-2.5-3.6-5.2-7-8.2-10.2
	c-6.4-7.3-12.9-14.8-14.1-26.1C226,206.9,225.9,206,225.9,205.1"/>
<path class="st0" d="M212.8,292.5c-1.1,0-1.3,1.8-1.8,3.4c-0.5,1.5-1.1,2.9-1.9,4.2c-0.4,0.7-0.8,1.4-1.1,2.2l0,0
	c-3.3,7.3,0.3,12.2,4.9,16.9c4.8-5,8.1-9.7,4.8-16.9c-0.3-0.7-0.7-1.5-1.1-2.2c-0.8-1.3-1.4-2.7-1.9-4.2
	C214,294.3,213.9,292.5,212.8,292.5"/>
<path class="st0" d="M221.4,191.8l-0.4,0.5c-2.3,3-4.7,6-5.7,10.3c-1.1,4.8-3.8,5.2-4.9,0.2c-0.8-3.9-2.8-6.8-4.9-9.5v0.1
	c-0.4-0.5-0.8-1.1-1.2-1.6c0,5.2,0,11.9-0.5,16.4c-1.3,12.7-8.3,20.7-15.2,28.6c-5.4,6.2-10.6,12.2-12.5,20.1l-0.7,2.9l-2.5-1.5
	c-5.2-3-8.4-6.3-10.3-9.5c-1.7-2.8-2.7-5.9-3.1-9.1c-0.4-3.5,0.1-6.8,1.1-12.8c0.3-1.7,0.6-3.7,1-6.6c1.9-12.5-3.8-16.5-13.5-15.9
	c-1.1,0.1-2.4,0.2-3.6,0.4c8.1,3.7,9.6,10.9,8.3,19.8c-1,5.7-2.4,11.3-4.1,16.8c-2.4,8.1-4.9,16.7-5.4,25c-0.7,12,2.5,21.1,9.2,27.7
	s17.3,10.8,31.2,12.7l1.2,0.6l0,0c1.2,1.2,2.4,2.4,3.6,3.5c1.3,1.1,2.6,2.2,4,3.2c4.6,3.4,14,10.4,19.6,10.3
	c5.8-0.1,20.8-10.3,20.8-10.3s2.7-2.1,4-3.2s2.5-2.3,3.6-3.5l1.3-0.6c13.8-2,24.4-6.1,31.2-12.7s9.9-15.6,9.2-27.7
	c-0.5-8.3-3-16.9-5.4-25c-1.8-5.5-3.1-11.1-4.1-16.8c-1.3-8.9,0.2-16,8.3-19.8c-1.2-0.2-2.4-0.3-3.6-0.4
	c-9.7-0.6-15.4,3.3-13.5,15.9c0.5,2.9,0.8,4.9,1.1,6.6c1,6,1.5,9.3,1.1,12.8c-0.3,3.2-1.4,6.3-3.1,9.1c-2,3.2-5.1,6.5-10.3,9.5
	l-2.5,1.5l-0.7-2.9c-1.9-8-7.1-14-12.5-20.1c-6.9-7.8-13.9-15.8-15.2-28.6C221.4,203.7,221.3,197,221.4,191.8"/>
<path class="st0" d="M199.9,185.7c-1-2.2-1.6-4.6-1.6-7.1c-0.1-6.5,3.2-11.2,6.6-15.9c3.1-4.3,5.5-7,6.5-13.1
	c0.5-3.1,2.2-2.6,2.6,0.1c1,5.7,3.5,8.7,6.6,13c3.4,4.7,6.8,9.4,6.6,15.9c0,2.4-0.6,4.8-1.6,7.1c0,4.5-0.1,10.4,0,14.7
	c6.5,3.8,12.3,8.8,17,14.7l0.1-0.4l17.3-83.8c1.5-7.1,3.2-11.7,6.7-14.2c1.4-1,3-1.7,4.7-2c-0.5-0.3-1-0.7-1.5-1
	c-5.5-3.7-10.9-7.3-16.7-3.7c-2.1,1.3-3.1,2.4-3.5,4.8l-8.5,46.9c-0.8,3.5-5,2.9-4.1-1.2l8.2-45.3c0.5-2.8,1.4-6,0.5-8.8
	c-1.3-4.2-5.2-6.9-8.8-9.4c-1.6-1-3.1-2.2-4.5-3.4c-0.2,1.1-0.3,2.1-0.4,3l0,0l-5.3,53.9c-0.4,3.3-4.7,3-4.2-0.9l4.5-45.9
	c0.4-4.6,0.7-6.8-2.8-10.1c-1.5-1.4-3.2-2.7-4.8-4c-1.7-1.2-3.3-2.4-4.8-3.8c-0.7-0.7-1.3-1.4-1.8-2.2c-0.5,0.8-1.1,1.5-1.8,2.2
	c-1.5,1.3-3.1,2.6-4.8,3.8c-1.6,1.3-3.4,2.6-4.8,4c-3.5,3.3-3.2,5.5-2.8,10.1l4.5,45.9c0.4,3.9-3.8,4.3-4.2,0.9l-5.3-53.9l0,0
	c-0.1-0.9-0.3-1.9-0.5-3c-1.4,1.2-3,2.4-4.6,3.4c-3.6,2.5-7.5,5.2-8.7,9.4c-0.8,2.8,0,6,0.5,8.8l8.2,45.3c0.9,4-3.4,4.7-4.1,1.2
	l-8.5-46.9c-0.4-2.4-1.4-3.4-3.5-4.8c-5.8-3.7-11.2,0-16.7,3.7l-1.5,1c1.7,0.3,3.3,1,4.7,2c3.4,2.6,5.2,7.1,6.7,14.2l17.2,83.8
	l0.1,0.4c4.7-5.9,10.4-10.9,16.9-14.7C199.9,196.1,199.9,190.2,199.9,185.7"/>
<path class="st0" d="M214.4,360.4c5.7-0.4,10.2-2.3,15.6-4.3c8.1-3,15.3-5.8,29.6-2.1c4.3,1.2,8.5,2.8,12.5,4.7
	c9.3,4,19.5,8.4,31.5,7.4l1.1-3.8c-5.1-4-6.8-11.6-8.4-18.8c-0.4-1.9-0.8-3.7-1.3-5.7l0,0l-0.4-1.5l-1.5-0.1
	c-8.8-0.7-14.8-3.3-22.6-6.1c-3.4-1.2-6-2.9-10.2-4.2c-11.5-3.6-23.3-0.1-33.1,2.4c-5.1,1.3-9.4,4.7-14,4.9h-0.7
	c-4.6-0.2-5.9-3.6-11.1-4.9c-9.8-2.5-20.3-5.1-31.8-1.6c-4.2,1.3-8.9,4.1-12.2,5.3c-7.8,2.8-13.9,4.6-21.9,4.2l-1.5,0.1l-0.4,1.5
	l0,0c-0.5,2-0.9,3.8-1.3,5.7c-1.6,7.1-3.3,14.7-8.4,18.8l1.1,3.8c12,1,22.2-3.4,31.5-7.4c4.1-1.9,8.2-3.5,12.5-4.7
	c14.3-3.6,21.6-0.9,29.6,2.1C204.1,358.1,208.6,360,214.4,360.4"/>
<path class="st5" d="M300.1,367.7c-10.8,0-20.2-4.1-28.5-7.7l-0.3-0.1c-3.9-1.8-7.9-3.3-12-4.5c-4-1.1-8-1.6-12.1-1.7
	c-6.6,0-11.5,1.8-16.7,3.8l-1.6,0.6c-4.6,1.8-9,3.4-14.4,3.8h-0.2c-5.4-0.4-9.8-2-14.4-3.8c-0.5-0.2-1-0.4-1.6-0.6
	c-5.1-1.9-10-3.8-16.7-3.8c-4.1,0.1-8.2,0.6-12.1,1.7c-4.2,1.2-8.3,2.8-12.3,4.6h-0.1c-8.3,3.6-17.8,7.7-28.5,7.7
	c-1.2,0-2.4-0.1-3.6-0.1l-1-0.1l-1.7-5.7l0.8-0.6c4.7-3.7,6.3-10.9,7.8-17.9l0.1-0.7c0.4-1.6,0.7-3.2,1.2-4.9l0,0l0.8-2.6l2.6-0.2
	h0.1c0.6,0,1.3,0,1.9,0c6.5,0,11.8-1.5,19.4-4.2c1.4-0.5,3.1-1.3,4.9-2.1c2.4-1.2,4.9-2.3,7.4-3.1c3.9-1.2,8-1.8,12.1-1.8
	c7.2,0,13.9,1.7,20.4,3.3c2.1,0.6,4.1,1.5,5.8,2.8c1.6,1.1,2.9,1.9,4.9,2h0.6c2.3-0.1,4.7-1.2,7.3-2.4c2-1,4.2-1.9,6.4-2.5l1.8-0.5
	c6.4-1.6,13.5-3.5,20.9-3.5c3.8,0,7.5,0.5,11.1,1.6c2.1,0.7,4.2,1.5,6.2,2.5c1.4,0.6,2.6,1.2,4,1.7l3.4,1.2
	c6.2,2.3,11.5,4.2,18.9,4.8l2.5,0.2l0.7,2.7c0.5,2,0.9,3.9,1.3,5.6c1.5,7,3.1,14.2,7.8,17.9l0.8,0.6l-1.7,5.7l-1,0.1
	C302.5,367.6,301.3,367.7,300.1,367.7 M247.1,350.8c4.3,0.1,8.6,0.6,12.8,1.8c4.3,1.2,8.4,2.8,12.5,4.7l0.3,0.1
	c8.1,3.5,17.2,7.4,27.4,7.4c0.8,0,1.6,0,2.4-0.1l0.6-2c-4.9-4.4-6.5-11.8-8.1-18.9c-0.4-1.7-0.8-3.6-1.3-5.6l-0.1-0.5l-0.5,0
	c-7.7-0.6-13.2-2.6-19.6-5l-3.4-1.2c-1.5-0.5-2.9-1.2-4.3-1.8c-1.9-0.9-3.9-1.7-5.9-2.4c-3.3-1-6.8-1.5-10.2-1.5
	c-7,0-14.1,1.8-20.2,3.4l-1.8,0.5c-2,0.6-4,1.4-5.9,2.3c-2.8,1.3-5.5,2.5-8.4,2.6h-0.8c-2.4-0.2-4.6-1-6.5-2.5
	c-1.5-1.1-3.1-1.9-4.9-2.4c-6.3-1.6-12.9-3.3-19.7-3.3c-3.8,0-7.6,0.5-11.3,1.7c-2.4,0.8-4.7,1.8-7,3c-1.9,0.9-3.6,1.7-5.1,2.3
	c-7.9,2.8-13.5,4.4-20.4,4.4h-2h-0.4l-0.1,0.4l-0.2,1.2h-0.1c-0.3,1.3-0.6,2.6-0.9,3.9l-0.1,0.7c-1.6,7.1-3.2,14.5-8.1,18.9l0.6,2
	c0.8,0,1.6,0.1,2.4,0.1c10.2,0,19.3-3.9,27.4-7.4h0.1c4.1-1.9,8.4-3.5,12.7-4.8c4.2-1.1,8.5-1.7,12.8-1.8c7.2,0,12.3,1.9,17.7,4
	l1.6,0.6c4.6,1.7,8.6,3.3,13.5,3.6c4.9-0.4,8.8-1.9,13.4-3.6l1.6-0.6C234.9,352.8,240,350.8,247.1,350.8"/>
<path class="st5" d="M212.6,353.1L212.6,353.1 M299.6,353.5c0.3,0.7,0.6,1.4,1,2.2c-8.7,2-18.4-1.8-27.3-5.8c-6.7-3-13.4-6-19.7-6.3
	c-6.9-0.3-13.9,0.3-20.7,1.9c-6.8,1.7-13.4,4.2-19.6,7.5l-0.2,0.1l0,0l0,0l0,0H213l0,0h-0.6l0,0h-0.1h-0.1l0,0l0,0l0,0h-0.1l0,0
	c-6.3-3.2-12.9-5.7-19.7-7.4c-6.7-1.6-13.7-2.3-20.6-1.9c-6.4,0.3-12.4,3.3-18.4,6.3c-7.9,3.9-16.4,7.3-25,5.4l1-2.2
	c7.8,1.8,15.5-1.6,23-5.3c6.2-3.1,12.5-6.2,19.4-6.5c7.1-0.3,14.3,0.3,21.3,2c6.9,1.7,13.5,4.2,19.8,7.4c6.3-3.2,12.9-5.7,19.8-7.4
	c7-1.7,14.1-2.3,21.3-2c6.8,0.3,13.7,3.4,20.6,6.5c8.5,3.8,17.4,7.5,25.3,5.8"/>
<rect x="211.4" y="332.3" class="st5" width="2.4" height="18.5"/>
<path class="st5" d="M86.4,151.1l-18.9-9c-1.4,3-2.1,4.5-3.4,7.7l-3.9-1.6c2.8-7,6.1-13.9,10-20.4l3.7,2.1c-1.6,2.8-2.4,4.2-3.9,7.1
	c7.4,3.9,11.1,5.8,18.6,9.6C87.7,148.4,87.2,149.3,86.4,151.1"/>
<path class="st5" d="M72,124.7c1.2-1.9,1.8-2.9,3-4.7l11.4,7.5c1.1,0.8,2.3,1.5,3.6,2.2c0.9,0.4,1.9,0.4,2.9,0.1
	c1.1-0.4,2-1.1,2.6-2.1c0.7-0.9,1.1-1.9,1.1-3c0-0.9-0.4-1.7-1-2.3c-1-1-2.1-1.9-3.3-2.8c-4.5-3.4-6.7-5-11.1-8.4
	c1.3-1.8,2-2.6,3.3-4.3l10.3,8.3c1.7,1.3,3.3,2.7,4.7,4.3c0.8,0.9,1.3,1.9,1.6,3.1c0.3,1.1,0.3,2.3,0,3.4c-0.4,1.4-1.1,2.8-2,4
	c-0.9,1.5-2.1,2.7-3.5,3.7c-1,0.6-2.1,1-3.3,1.2c-1,0.1-2.1,0-3.1-0.3c-2-0.8-3.9-1.8-5.7-2.9L72,124.7"/>
<path class="st5" d="M110.4,115.2l-15.3-14.3c-2.1,2.2-3.1,3.4-5,5.8l-3.3-2.8c4.4-5.4,9.2-10.5,14.4-15.1c1.2,1.3,1.7,1.9,2.9,3.1
	c-2.2,2-3.3,3.1-5.4,5.2c6,5.9,8.9,8.8,14.9,14.8C112.3,113.2,111.7,113.8,110.4,115.2"/>
<path class="st5" d="M129.3,98.1c-7.7-6.8-11.7-10.2-19.9-16.5c1.7-1.3,2.5-2,4.2-3.3c5.4,4.6,8.1,7,13.2,11.8
	c-2.7-6.6-4-10-6.3-16.7c2-1.4,3-2,5.1-3.3c5.3,5,7.8,7.6,12.8,12.9c-2.4-6.8-3.5-10.2-5.6-17.1c1.8-1,2.7-1.5,4.5-2.4
	c2.5,10.1,3.9,15,7.1,24.8c-1.6,0.9-2.4,1.3-4,2.3c-5.4-5.6-8.2-8.3-13.9-13.5c2.5,7.4,3.8,11,6.8,18.2
	C131.6,96.4,130.8,97,129.3,98.1"/>
<path class="st5" d="M139.5,62.4c1.8-0.9,2.7-1.3,4.6-2.2c2.3,5,3.4,7.4,5.7,12.4c0.6,1.3,1.2,2.5,1.9,3.8c0.5,0.8,1.3,1.4,2.2,1.7
	c1,0.3,2.1,0.2,3.1-0.3c1-0.3,1.8-1,2.3-1.9c0.4-0.8,0.5-1.6,0.3-2.4c-0.4-1.4-0.8-2.7-1.4-4.1c-2-5.2-3.1-7.8-5.1-13
	c1.9-0.7,2.8-1.1,4.7-1.8c1.8,5,2.7,7.5,4.5,12.5c0.8,2,1.4,4.1,1.8,6.2c0.2,1.1,0.2,2.3-0.1,3.4c-0.3,1-0.9,2-1.6,2.8
	c-1,1-2.2,1.7-3.5,2.2c-1.4,0.7-3,1.1-4.6,1.1c-1.1,0-2.2-0.3-3.2-0.9c-0.9-0.5-1.7-1.2-2.4-2c-1.2-1.7-2.3-3.6-3.3-5.5
	C143.1,69.5,141.9,67.1,139.5,62.4"/>
<path class="st5" d="M170.7,77c-3.1-9.6-4.6-14.4-7.8-24c4-1.3,6.1-1.8,10.2-2.9c1.9-0.6,3.8-0.8,5.8-0.6c1.3,0.2,2.4,0.8,3.3,1.8
	c0.9,1,1.6,2.3,1.8,3.7c0.4,1.7,0.2,3.4-0.6,4.9c-0.8,1.4-3.9,3.2-3.9,3.2c1,0.5,1.9,1,2.8,1.5c1.2,1.1,2.3,2.2,3.3,3.5
	c1.4,1.7,2.1,2.6,3.5,4.3c-2,0.3-3,0.5-5,1c-1.7-1.9-2.5-2.8-4.3-4.7c-1-1.1-2-2.1-3.2-3c-0.5-0.4-1-0.6-1.6-0.7
	c-0.8,0-1.6,0.1-2.3,0.3c-0.4,0.1-0.5,0.2-0.9,0.3c1.2,4,1.8,6,2.9,10.1C173.1,76.3,172.3,76.5,170.7,77 M170.7,61.9
	c1.3-0.4,2-0.6,3.4-0.9c1.4-0.3,2.7-0.7,4-1.3c0.5-0.3,0.9-0.8,1.1-1.3c0.2-0.6,0.2-1.3,0.1-1.9c-0.1-0.7-0.5-1.4-1.1-1.9
	c-0.6-0.4-1.3-0.6-2-0.5c-1.2,0.2-2.3,0.4-3.5,0.8c-1.5,0.4-2.2,0.6-3.7,1L170.7,61.9"/>
<path class="st5" d="M191.3,72.1c-1.6-9.9-2.5-14.9-4.1-24.8c2-0.3,3-0.5,5-0.7c1.4,10,2,15,3.4,24.9
	C193.8,71.7,193,71.8,191.3,72.1"/>
<path class="st5" d="M207.7,70.4c-0.5-10-0.7-15.1-1.2-25.1c2-0.1,3-0.1,5-0.2c0.1,4,0.1,5.9,0.2,9.9c3.7-0.1,5.5,0,9.2,0.1l0.4-9.9
	c2,0.1,3,0.1,5,0.3c-0.7,10-1.1,15-1.8,25.1c-1.7-0.1-2.6-0.2-4.3-0.2l0.4-11c-3.6-0.1-5.4-0.2-9-0.1c0.1,4.4,0.1,6.6,0.2,11
	C210.2,70.3,209.3,70.3,207.7,70.4"/>
<path class="st5" d="M247.6,74.1c-1.8-0.4-2.7-0.6-4.5-1c-0.3-2.4-0.4-3.6-0.7-6c-3.4-0.6-5.2-0.9-8.7-1.4c-1,2.2-1.5,3.3-2.5,5.5
	c-1.8-0.2-2.7-0.3-4.5-0.4c3.4-8.2,7.3-16.3,11.8-24c2.1,0.3,3.1,0.5,5.2,0.8C245.7,56.3,246.9,65.1,247.6,74.1 M241.7,62.6
	c-0.6-3.9-0.9-5.8-1.6-9.7c-1.9,3.5-2.8,5.3-4.5,8.8C238.1,62,239.3,62.2,241.7,62.6"/>
<path class="st5" d="M249.9,74.6c2.5-9.8,3.8-14.6,6.3-24.4c1.9,0.5,2.8,0.7,4.7,1.3c1.8,6.2,3.2,12.5,4.1,18.9
	c2.3-6.3,3.4-9.5,5.6-15.8c1.8,0.6,2.6,0.9,4.4,1.6c-3.6,9.4-5.5,14.1-9.1,23.5c-1.6-0.6-2.4-0.9-4-1.5c-0.8-6.2-2-12.3-3.6-18.3
	c-1.8,6.3-2.7,9.5-4.5,15.8C252.2,75.2,251.5,75,249.9,74.6"/>
<path class="st5" d="M279.9,58.1c3.4,1.4,5.1,2.2,8.4,3.8c1.4,0.7,2.8,1.5,4,2.6c1.1,1,1.8,2.4,2.2,3.8c0.4,1.5,0.4,3.2,0,4.7
	c-1,3.7-2.9,7.1-5.6,9.8c-1.2,1.2-2.7,2.1-4.3,2.7c-1.2,0.4-2.4,0.5-3.6,0.3c-1.3-0.2-2.5-0.6-3.7-1.3c-2.9-1.4-4.4-2.1-7.4-3.3
	C274,72,276,67.4,279.9,58.1 M282.8,64c-2.8,6.1-4.2,9.1-7,15.1c1.2,0.6,1.8,0.8,3,1.4c0.8,0.4,1.6,0.8,2.5,1
	c0.7,0.1,1.4,0.1,2.1-0.1c0.8-0.4,1.6-0.9,2.2-1.6c1-1.2,1.9-2.5,2.6-3.8c0.8-1.3,1.3-2.7,1.7-4.2c0.2-0.9,0.2-1.9-0.1-2.8
	c-0.3-0.8-0.8-1.6-1.5-2.1c-1.1-0.8-2.3-1.5-3.5-2C284,64.5,283.6,64.4,282.8,64"/>
<path class="st5" d="M305.1,102.4c-1.5-1.2-2.2-1.8-3.7-3c0.8-2.3,1.2-3.4,1.9-5.7c-2.9-2.2-4.4-3.2-7.4-5.2
	c-1.9,1.5-2.8,2.3-4.6,3.8c-1.5-1-2.3-1.5-3.9-2.4c6.7-5.9,13.8-11.4,21.3-16.4c1.8,1.2,2.7,1.8,4.5,3.1
	C311,85.5,308.3,94,305.1,102.4 M304.6,89.4c1.2-3.8,1.8-5.7,2.8-9.5c-3.2,2.3-4.8,3.5-8,5.9C301.5,87.2,302.6,87.9,304.6,89.4"/>
<path class="st5" d="M309.1,105.9l7.1-7.9c1.2-5.6,2-11.3,2.5-17c1.9,1.5,2.8,2.3,4.7,3.9c-0.7,4.6-1.2,6.9-2.2,11.4
	c4.4-1.4,6.6-2,11.1-3.2c1.7,1.7,2.6,2.6,4.2,4.4c-5.7,0.9-11.3,2.1-16.8,3.8c-2.9,3.1-4.4,4.6-7.3,7.7
	C311.1,107.7,310.4,107.1,309.1,105.9"/>
<path class="st5" d="M330.5,130.2c-1.1-1.7-1.7-2.5-2.9-4.1c1.4-2,2-3,3.3-5.1c-2.3-3-3.5-4.5-6-7.3c-2.2,0.9-3.3,1.4-5.5,2.4
	c-1.3-1.4-1.9-2.1-3.3-3.5c8.1-3.9,16.4-7.3,24.9-10c1.5,1.7,2.2,2.6,3.6,4.4C340.5,115.1,335.7,122.8,330.5,130.2 M333.2,117.2
	c2.1-3.4,3.1-5.1,5.1-8.6c-3.8,1.3-5.6,2-9.3,3.5C330.7,114,331.6,115,333.2,117.2"/>
<path class="st5" d="M331.9,132.3c8.4-5.7,12.5-8.5,20.8-14.2c1.2,1.8,1.8,2.7,2.9,4.6c-2.6,6.2-5.6,12.1-9.1,17.9l14.8-8
	c1,1.9,1.5,2.8,2.4,4.7l-22.5,11.3c-0.9-1.8-1.3-2.6-2.2-4.4c3.4-5.5,6.4-11.2,9.1-17.1l-13.9,8.8
	C333.4,134.5,332.9,133.8,331.9,132.3"/>
<path class="st5" d="M343.5,153.2c9.2-4.2,13.7-6.3,22.9-10.4c1,2.1,1.4,3.2,2.3,5.4c-9.3,3.9-13.9,5.8-23.2,9.6
	C344.7,155.9,344.3,155,343.5,153.2"/>
<path class="st5" d="M207.2,290.2c2-1.9,9.1-1.8,11.2,0c2.3,1.9,1.8,11.7,1.8,11.7s4.1,5.2,4,7.3c-0.2,3.9-7.6,10.9-11.6,10.9
	s-11.5-7.2-11.7-11.1c-0.1-2.1,4.1-7.6,4.1-7.6S205.1,292.3,207.2,290.2 M207.4,302c0,0-2.9,4.5-2.8,6.2c0.1,3.3,5.2,9.2,8,9.2
	s7.8-5.8,8-9c0.1-1.7-2.7-6-2.7-6s0.4-8-1.2-9.6s-6.3-1.6-7.7,0S207.4,302,207.4,302"/>
<path class="st0" d="M228,253.2L228,253.2"/>
<path class="st0" d="M221.9,242.5c-3.9-6.1-7-12.6-9.3-19.5c-2.9,7.8-1.3,15.4,0.2,21.9c1.7,7.4,3.4,15-0.5,26.7
	c-1.4,4.3-5.1,1.4-4.1-1.1c6.5-15.2-1.3-29.7-3.3-33.9c-1.5,5.4-5.8,11.4-8.1,16.7c-3.2,7.2-4.4,16.4,0.1,23.1
	c0.9,1.3,2,2.5,3.2,3.5c1.1,0.9,2.2,1.7,3.5,2.3c0.8-0.5,1.6-1,2.5-1.3c0.3-0.1,0.5-0.2,0.8-0.3c1.7-0.6,3.6-0.9,5.4-1
	c2.6,0,5.2,0.6,7.6,1.9c0.4,0.2,0.8,0.5,1.2,0.7c8.2-4.4,10.3-12.2,9.3-19.7c-0.2-1.6-0.5-3.2-1-4.7c-0.4-1.5-1-3-1.6-4.4l0,0
	C226.2,249.5,224.2,245.9,221.9,242.5"/>
<path class="st6" d="M214.6,213c2,14.4,6.8,19.8,11.2,27.4c2.3,3.6,4.4,7.3,6.3,11.2c0,0,0,0,0,0.1l0,0c1.5,3.3,2.4,6.7,2.9,10.2
	c1.2,9.5-1.6,19.4-13.1,24.5l-1.3,0.6l-1.1-0.9c-0.3-0.2-0.6-0.4-0.8-0.6s-0.6-0.4-0.9-0.5c-2.8-1.5-6.2-1.8-9.2-0.7
	c-0.2,0.1-0.4,0.1-0.6,0.2c-0.9,0.4-1.8,1-2.6,1.6l-1.1,0.9l-1.3-0.6l0,0c-2-0.9-3.9-2.1-5.7-3.5c-1.5-1.3-2.9-2.7-4-4.4
	c-5.3-8-4-18.7-0.4-26.8c3-6.7,8.4-12.3,9.8-20.7c0.5-3,1-6.2,3.7-1c0.6,1,1,2.1,1.3,3.2c-1.4-5.3,2.7-16.7,4.2-20.5
	C213.1,209.3,214.3,208.3,214.6,213"/>
<path class="st5" d="M220.4,288.7l-1.8-1.5c-0.3-0.2-0.5-0.4-0.7-0.5l-0.1,0c-0.2-0.1-0.4-0.2-0.6-0.4l-0.1-0.1
	c-2.5-1.3-5.4-1.5-8-0.6l-0.2,0.1c-0.1,0-0.2,0.1-0.3,0.1c-0.8,0.4-1.6,0.8-2.3,1.4l-1.8,1.5l-2.3-1c-2.1-0.9-4.1-2.2-5.9-3.6
	c-1.7-1.4-3.1-2.9-4.3-4.7c-4.9-7.4-5.1-17.9-0.5-28.2c1.1-2.4,2.4-4.7,3.8-7c2.4-4,5-8.2,5.8-13.4c0.4-2.4,0.8-4.9,2.9-4.9
	c0.9,0.1,1.7,0.5,2.1,1.3c0.9-5.1,2.3-10.1,4.3-14.9c0.9-2.3,1.7-3.8,3.2-3.8c2.1,0,2.3,2.9,2.4,4.6c1.6,11.6,5.1,17.2,8.7,23.1
	c0.8,1.2,1.5,2.4,2.3,3.8c2.2,3.4,4.2,6.9,6,10.5l0,0l0.3,0.6l0.2,0.2v0.3c0.7,1.6,1.3,3.2,1.7,4.9c0.5,1.8,0.9,3.6,1.2,5.5
	c0.9,7,0.3,19.6-13.9,26L220.4,288.7z M219.5,284.3c0.3,0.2,0.6,0.4,0.9,0.7l0.4,0.3l0.6-0.2c12.5-5.6,13-16.9,12.2-23
	c-0.2-1.7-0.6-3.4-1.1-5.1c-0.5-1.6-1-3.2-1.7-4.7l-0.4-0.6l0.1-0.2c-1.7-3.6-3.7-7.1-5.9-10.4c-0.8-1.3-1.5-2.5-2.3-3.7
	c-3.6-5.9-7.4-12-9.1-24.2v-0.1c0,0,0-0.1,0-0.1c0,0,0,0.1-0.1,0.1c-1.3,3.4-5.4,14.7-4.1,19.6l-2.8,0.8c-0.3-1-0.7-2-1.2-2.9
	c-0.2-0.4-0.4-0.8-0.7-1.2c-0.1,0.6-0.3,1.3-0.3,1.8c-0.9,5.8-3.6,10.1-6.2,14.4c-1.4,2.1-2.6,4.4-3.7,6.6
	c-4.2,9.4-4.1,18.9,0.3,25.5c1,1.5,2.3,2.9,3.7,4.1c1.6,1.3,3.4,2.4,5.3,3.3l0.6,0.3l0.4-0.4c0.9-0.7,1.9-1.3,3-1.8l0.1,0l0.2-0.1
	l0.4-0.1c1.4-0.5,2.8-0.7,4.3-0.7c2.1,0,4.2,0.5,6,1.5l0.2,0.1C218.9,284,219.2,284.1,219.5,284.3"/>
<path class="st5" d="M208.6,230.3c0,0,6.6,13.6,7.4,21c0.7,6.8-6.7,21-6.7,21s3.6-13.2,3.1-20.3c-0.4-6.2-6.2-18.7-6.2-18.7
	L208.6,230.3z"/>
</svg>
